<svg width="48" height="48" viewBox="0 0 48 48" fill="none" xmlns="http://www.w3.org/2000/svg">
<path d="M12.4 33C14.1855 33 15.9236 33.2083 17.6142 33.625C19.3047 34.0417 20.9667 34.6667 22.6 35.5V14.15C21.1 13.15 19.473 12.375 17.7191 11.825C15.9651 11.275 14.1921 11 12.4 11C11.1333 11 9.89167 11.1583 8.675 11.475C7.45833 11.7917 6.23333 12.1833 5 12.65V34.35C6.03333 33.8833 7.20833 33.5417 8.525 33.325C9.84167 33.1083 11.1333 33 12.4 33ZM25.6 35.5C27.2667 34.6667 28.9 34.0417 30.5 33.625C32.1 33.2083 33.8 33 35.6 33C36.8667 33 38.175 33.1 39.525 33.3C40.875 33.5 42.0333 33.7667 43 34.1V12.65C41.8667 12.0833 40.6696 11.6667 39.4089 11.4C38.1481 11.1333 36.8785 11 35.6 11C33.8 11 32.0583 11.275 30.375 11.825C28.6917 12.375 27.1 13.15 25.6 14.15V35.5ZM24.1 39.45C23.8487 39.45 23.6109 39.425 23.3865 39.375C23.1622 39.325 22.9667 39.2333 22.8 39.1C21.2333 38.1333 19.5692 37.3833 17.8077 36.85C16.0461 36.3167 14.2435 36.05 12.4 36.05C11.1821 36.05 9.98597 36.2 8.8116 36.5C7.6372 36.8 6.46667 37.1667 5.3 37.6C4.53 37.9667 3.7875 37.9167 3.0725 37.45C2.3575 36.9833 2 36.3167 2 35.45V12.3C2 11.8 2.11667 11.3417 2.35 10.925C2.58333 10.5083 2.93333 10.1833 3.4 9.95C4.8 9.28333 6.25658 8.79167 7.76975 8.475C9.28288 8.15833 10.8263 8 12.4 8C14.5 8 16.5417 8.28333 18.525 8.85C20.5083 9.41667 22.3667 10.2833 24.1 11.45C25.8 10.2833 27.625 9.41667 29.575 8.85C31.525 8.28333 33.5333 8 35.6 8C37.1623 8 38.6945 8.15833 40.1967 8.475C41.6989 8.79167 43.15 9.28333 44.55 9.95C45.0167 10.1833 45.375 10.5083 45.625 10.925C45.875 11.3417 46 11.8 46 12.3V35.45C46 36.3798 45.625 37.0873 44.875 37.5724C44.125 38.0575 43.3833 38.0667 42.65 37.6C41.5167 37.1333 40.3628 36.7583 39.1884 36.475C38.014 36.1917 36.8179 36.05 35.6 36.05C33.7908 36.05 32.0219 36.3167 30.2931 36.85C28.5644 37.3833 26.9333 38.1333 25.4 39.1C25.2333 39.2333 25.0378 39.325 24.8135 39.375C24.5891 39.425 24.3513 39.45 24.1 39.45ZM28 17.6C28 17.4161 28.0671 17.2272 28.2012 17.0331C28.3353 16.839 28.4849 16.7113 28.65 16.65C29.65 16.2833 30.6723 16 31.7168 15.8C32.7613 15.6 33.8598 15.5 35.0124 15.5C35.7328 15.5 36.4441 15.5417 37.1465 15.625C37.8488 15.7083 38.5333 15.8333 39.2 16C39.4 16.0667 39.5833 16.1899 39.75 16.3698C39.9167 16.5496 40 16.7519 40 16.9767C40 17.3589 39.875 17.65 39.625 17.85C39.375 18.05 39.0667 18.1 38.7 18C38.14 17.8333 37.55 17.7083 36.93 17.625C36.31 17.5417 35.6667 17.5 35 17.5C34.0333 17.5 33.1 17.5917 32.2 17.775C31.3 17.9583 30.4167 18.2333 29.55 18.6C29.0833 18.7667 28.7083 18.7583 28.425 18.575C28.1417 18.3917 28 18.0667 28 17.6ZM28 28.6C28 28.4065 28.0671 28.2076 28.2012 28.0033C28.3353 27.7989 28.4849 27.6645 28.65 27.6C29.65 27.2333 30.6723 26.9583 31.7168 26.775C32.7613 26.5917 33.8598 26.5 35.0124 26.5C35.7328 26.5 36.4441 26.5417 37.1465 26.625C37.8488 26.7083 38.5333 26.8333 39.2 27C39.4 27.0667 39.5833 27.1899 39.75 27.3697C39.9167 27.5496 40 27.752 40 27.9768C40 28.3589 39.875 28.65 39.625 28.85C39.375 29.05 39.0667 29.1 38.7 29C38.14 28.8333 37.55 28.7083 36.93 28.625C36.31 28.5417 35.6667 28.5 35 28.5C34.0333 28.5 33.1 28.5833 32.2 28.75C31.3 28.9167 30.4167 29.1833 29.55 29.55C29.0833 29.7167 28.7083 29.7167 28.425 29.55C28.1417 29.3833 28 29.0667 28 28.6ZM28 23.1C28 22.9161 28.0671 22.7272 28.2012 22.5331C28.3353 22.339 28.4849 22.2113 28.65 22.15C29.65 21.7833 30.6723 21.5 31.7168 21.3C32.7613 21.1 33.8598 21 35.0124 21C35.7328 21 36.4441 21.0417 37.1465 21.125C37.8488 21.2083 38.5333 21.3333 39.2 21.5C39.4 21.5667 39.5833 21.6899 39.75 21.8698C39.9167 22.0496 40 22.252 40 22.4768C40 22.8589 39.875 23.15 39.625 23.35C39.375 23.55 39.0667 23.6 38.7 23.5C38.14 23.3333 37.55 23.2083 36.93 23.125C36.31 23.0417 35.6667 23 35 23C34.0333 23 33.1 23.0917 32.2 23.275C31.3 23.4583 30.4167 23.7333 29.55 24.1C29.0833 24.2667 28.7083 24.2583 28.425 24.075C28.1417 23.8917 28 23.5667 28 23.1Z" fill="#EB5E28"/>
</svg>
