<svg width="48" height="49" viewBox="0 0 48 49" fill="none" xmlns="http://www.w3.org/2000/svg">
<path d="M7.35 29.7C5.85 29.7 4.58333 29.1799 3.55 28.1396C2.51667 27.0993 2 25.8361 2 24.35C2 22.8639 2.52013 21.6007 3.5604 20.5604C4.6007 19.5201 5.8639 19 7.35 19V12.85C7.35 12.05 7.65 11.35 8.25 10.75C8.85 10.15 9.55 9.85 10.35 9.85H18.65C18.65 8.35 19.1701 7.08333 20.2104 6.05C21.2507 5.01667 22.5139 4.5 24 4.5C25.4861 4.5 26.7493 5.02013 27.7896 6.0604C28.8299 7.1007 29.35 8.3639 29.35 9.85H37.65C38.45 9.85 39.15 10.15 39.75 10.75C40.35 11.35 40.65 12.05 40.65 12.85V19C42.15 19 43.4167 19.5201 44.45 20.5604C45.4833 21.6007 46 22.8639 46 24.35C46 25.8361 45.4799 27.0993 44.4396 28.1396C43.3993 29.1799 42.1361 29.7 40.65 29.7V39.5C40.65 40.3 40.35 41 39.75 41.6C39.15 42.2 38.45 42.5 37.65 42.5H10.35C9.55 42.5 8.85 42.2 8.25 41.6C7.65 41 7.35 40.3 7.35 39.5V29.7ZM17.1617 24.7C17.7206 24.7 18.1917 24.5044 18.575 24.1133C18.9583 23.7221 19.15 23.2471 19.15 22.6883C19.15 22.1294 18.9544 21.6583 18.5633 21.275C18.1721 20.8917 17.6971 20.7 17.1383 20.7C16.5794 20.7 16.1083 20.8956 15.725 21.2867C15.3417 21.6779 15.15 22.153 15.15 22.7118C15.15 23.2706 15.3456 23.7417 15.7367 24.125C16.1279 24.5083 16.6029 24.7 17.1617 24.7ZM30.8617 24.7C31.4206 24.7 31.8917 24.5044 32.275 24.1133C32.6583 23.7221 32.85 23.2471 32.85 22.6883C32.85 22.1294 32.6544 21.6583 32.2633 21.275C31.8721 20.8917 31.3971 20.7 30.8383 20.7C30.2794 20.7 29.8083 20.8956 29.425 21.2867C29.0417 21.6779 28.85 22.153 28.85 22.7118C28.85 23.2706 29.0456 23.7417 29.4368 24.125C29.8279 24.5083 30.3029 24.7 30.8617 24.7ZM17.1 34.25H30.9C31.325 34.25 31.6812 34.1054 31.9688 33.8163C32.2563 33.5271 32.4 33.1687 32.4 32.7413C32.4 32.3138 32.2563 31.9583 31.9688 31.675C31.6812 31.3917 31.325 31.25 30.9 31.25H17.1C16.675 31.25 16.3188 31.3946 16.0312 31.6838C15.7438 31.9729 15.6 32.3313 15.6 32.7587C15.6 33.1863 15.7438 33.5417 16.0312 33.825C16.3188 34.1083 16.675 34.25 17.1 34.25ZM10.35 39.5H37.65V12.85H10.35V39.5Z" fill="#EB5E28"/>
</svg>
