<svg width="48" height="49" viewBox="0 0 48 49" fill="none" xmlns="http://www.w3.org/2000/svg">
<path d="M24 6.75C27.2334 6.75 30.35 7.28333 33.35 8.35C36.35 9.41667 39.1334 10.9 41.7001 12.8C42.1 13.1 42.4084 13.4659 42.625 13.8976C42.8417 14.3294 42.9501 14.7738 42.9501 15.231C42.9501 15.5103 42.9084 15.7909 42.8251 16.0728C42.7417 16.3547 42.6167 16.6304 42.4501 16.9L26.5 40.95C26.2 41.4 25.825 41.7375 25.375 41.9625C24.925 42.1875 24.4647 42.3 23.9939 42.3C23.5232 42.3 23.0649 42.1917 22.6189 41.975C22.173 41.7583 21.8 41.4167 21.5 40.95L5.55005 16.9C5.37055 16.625 5.24235 16.35 5.16545 16.075C5.08852 15.8 5.05005 15.525 5.05005 15.25C5.05005 14.7885 5.15838 14.3398 5.37505 13.9039C5.59172 13.468 5.90005 13.1 6.30005 12.8C8.86672 10.9 11.65 9.41667 14.65 8.35C17.65 7.28333 20.7667 6.75 24 6.75ZM24 9.75C20.9334 9.75 18.1334 10.275 15.6 11.325C13.0667 12.375 10.5167 13.6667 7.95005 15.2L24 39.4L40.05 15.2C37.4834 13.6667 34.9326 12.375 32.3978 11.325C29.863 10.275 27.0637 9.75 24 9.75ZM18.503 20.5C19.2677 20.5 19.9167 20.2323 20.45 19.697C20.9834 19.1617 21.25 18.5117 21.25 17.747C21.25 16.9823 20.9824 16.3333 20.4471 15.8C19.9118 15.2667 19.2618 15 18.4971 15C17.7324 15 17.0834 15.2677 16.55 15.803C16.0167 16.3383 15.75 16.9883 15.75 17.753C15.75 18.5177 16.0177 19.1667 16.553 19.7C17.0883 20.2333 17.7383 20.5 18.503 20.5ZM24.003 31.25C24.7677 31.25 25.4167 30.9824 25.95 30.4471C26.4834 29.9118 26.75 29.2618 26.75 28.4971C26.75 27.7324 26.4824 27.0833 25.9471 26.55C25.4118 26.0167 24.7618 25.75 23.9971 25.75C23.2324 25.75 22.5834 26.0177 22.05 26.5529C21.5167 27.0882 21.25 27.7383 21.25 28.503C21.25 29.2677 21.5177 29.9167 22.053 30.45C22.5883 30.9833 23.2383 31.25 24.003 31.25Z" fill="#EB5E28"/>
</svg>
