<svg width="48" height="49" viewBox="0 0 48 49" fill="none" xmlns="http://www.w3.org/2000/svg">
<path d="M12.5 19.8L9.35004 21.55C8.88337 21.8167 8.39171 21.8917 7.87504 21.775C7.35837 21.6583 7.00004 21.3833 6.80004 20.95L3.35004 15C3.08337 14.5333 3.00837 14.1333 3.12504 13.8C3.2417 13.4667 3.5167 13.1667 3.95004 12.9L15.35 6.25H18.55C18.9167 6.25 19.2084 6.35833 19.425 6.575C19.6417 6.79167 19.75 7.08333 19.75 7.45V8.2C19.75 9.46667 20.15 10.5 20.95 11.3C21.75 12.1 22.7834 12.5 24.05 12.5C25.3167 12.5 26.3417 12.1 27.125 11.3C27.9084 10.5 28.3 9.46667 28.3 8.2V7.45C28.3 7.08333 28.4084 6.79167 28.625 6.575C28.8417 6.35833 29.1334 6.25 29.5 6.25H32.7L44.1 12.9C44.5334 13.1667 44.8 13.4667 44.9 13.8C45 14.1333 44.9334 14.5333 44.7 15L41.2 20.95C41 21.3833 40.5834 21.6667 39.95 21.8C39.3167 21.9333 38.8167 21.8833 38.45 21.65L35.35 19.7V40.3C35.35 40.8333 35.15 41.2917 34.75 41.675C34.35 42.0583 33.8834 42.25 33.35 42.25H14.45C13.9167 42.25 13.4584 42.0583 13.075 41.675C12.6917 41.2917 12.5 40.8333 12.5 40.3V19.8ZM15.5 14.7V39.25H32.35V14.7L39.25 18.55L41.5 14.65L32.15 9.3H31.25C30.9834 11.1 30.1917 12.5833 28.875 13.75C27.5584 14.9167 25.95 15.5 24.05 15.5C22.15 15.5 20.5334 14.9167 19.2 13.75C17.8667 12.5833 17.0667 11.1 16.8 9.3H15.9L6.55004 14.65L8.80004 18.55L15.5 14.7Z" fill="#EB5E28"/>
</svg>
