<svg width="48" height="48" viewBox="0 0 48 48" fill="none" xmlns="http://www.w3.org/2000/svg">
<path d="M13.8 40C12.3 40 10.975 39.4417 9.825 38.325C8.675 37.2083 8.05 35.85 7.95 34.25C6.71667 33.4833 5.75833 32.5095 5.075 31.3284C4.39167 30.1473 4.05 28.8545 4.05 27.45C4.05 25.7167 4.55833 24.1583 5.575 22.775C6.59167 21.3917 7.93333 20.5167 9.6 20.15L5.55 15.9L4.6 16.9C4.3 17.2333 3.94167 17.4 3.525 17.4C3.10833 17.4 2.75 17.2417 2.45 16.925C2.15 16.6083 2 16.25 2 15.85C2 15.45 2.15 15.0833 2.45 14.75L6.5 10.55C6.8 10.25 7.15833 10.1 7.575 10.1C7.99167 10.1 8.35 10.2583 8.65 10.575C8.95 10.8917 9.1 11.25 9.1 11.65C9.1 12.05 8.95 12.4 8.65 12.7L7.7 13.75L11.3 17.6L13.25 11.75C13.6167 10.65 14.2581 9.75 15.1742 9.05C16.0904 8.35 17.1157 8 18.25 8H29.85C30.9971 8 32.0338 8.35 32.9603 9.05C33.8868 9.75 34.5167 10.65 34.85 11.75L37.35 20.05C39.25 20.2167 40.8333 20.9917 42.1 22.375C43.3667 23.7583 44 25.45 44 27.45C44 28.8545 43.6583 30.1473 42.975 31.3284C42.2917 32.5095 41.3333 33.4833 40.1 34.25C40 35.85 39.375 37.2083 38.225 38.325C37.075 39.4417 35.75 40 34.25 40C32.85 40 31.625 39.5167 30.575 38.55C29.525 37.5833 28.8667 36.4 28.6 35H19.45C19.1833 36.4 18.525 37.5833 17.475 38.55C16.425 39.5167 15.2 40 13.8 40ZM13.7 19.95H22.45V11H18.25C17.7641 11 17.3343 11.1583 16.9606 11.475C16.5869 11.7917 16.3167 12.1833 16.15 12.65L13.7 19.95ZM25.45 19.95H34.2L31.9551 12.6672C31.785 12.1891 31.5131 11.7917 31.1394 11.475C30.7657 11.1583 30.3359 11 29.85 11H25.45V19.95ZM19.45 32H28.6C28.9667 30.8 29.6833 29.8333 30.75 29.1C31.8167 28.3667 32.9833 28 34.25 28C35.3167 28 36.3 28.2833 37.2 28.85C38.1 29.4167 38.8333 30.15 39.4 31.05C39.9667 30.6167 40.375 30.0762 40.625 29.4286C40.875 28.7811 41 28.1215 41 27.45C41 26.1833 40.5667 25.1167 39.7 24.25C38.8333 23.3833 37.7667 22.95 36.5 22.95H11.55C10.2833 22.95 9.21667 23.3833 8.35 24.25C7.48333 25.1167 7.05 26.1833 7.05 27.45C7.05 28.1215 7.18333 28.7811 7.45 29.4286C7.71667 30.0762 8.11667 30.6167 8.65 31.05C9.18333 30.0833 9.90975 29.3333 10.8293 28.8C11.7488 28.2667 12.739 28 13.8 28C15.0667 28 16.2333 28.3667 17.3 29.1C18.3667 29.8333 19.0833 30.8 19.45 32ZM13.8 37C14.65 37 15.3625 36.7125 15.9375 36.1375C16.5125 35.5625 16.8 34.85 16.8 34C16.8 33.15 16.5125 32.4375 15.9375 31.8625C15.3625 31.2875 14.65 31 13.8 31C12.95 31 12.2375 31.2875 11.6625 31.8625C11.0875 32.4375 10.8 33.15 10.8 34C10.8 34.85 11.0875 35.5625 11.6625 36.1375C12.2375 36.7125 12.95 37 13.8 37ZM34.25 37C35.1 37 35.8125 36.7125 36.3875 36.1375C36.9625 35.5625 37.25 34.85 37.25 34C37.25 33.15 36.9625 32.4375 36.3875 31.8625C35.8125 31.2875 35.1 31 34.25 31C33.4 31 32.6875 31.2875 32.1125 31.8625C31.5375 32.4375 31.25 33.15 31.25 34C31.25 34.85 31.5375 35.5625 32.1125 36.1375C32.6875 36.7125 33.4 37 34.25 37Z" fill="#EB5E28"/>
</svg>
