<svg width="48.000000" height="48.000000" viewBox="0 0 48 48" fill="none" xmlns="http://www.w3.org/2000/svg" xmlns:xlink="http://www.w3.org/1999/xlink">
	<defs>
		<clipPath id="clip3_51">
			<rect id="location_on_FILL0_wght400_GRAD0_opsz48 1" width="48.000000" height="48.000000" fill="white" fill-opacity="0"/>
		</clipPath>
	</defs>
	<rect id="location_on_FILL0_wght400_GRAD0_opsz48 1" width="48.000000" height="48.000000" fill="#FFFFFF" fill-opacity="0"/>
	<g clip-path="url(#clip3_51)">
		<path id="Vector" d="M24 40.05C28.4333 36.0167 31.7084 32.3583 33.825 29.075C35.9417 25.7916 37 22.9 37 20.4C37 16.4736 35.7451 13.2588 33.2354 10.7552C30.7257 8.25171 27.6472 7 24 7C20.3528 7 17.2743 8.25171 14.7646 10.7552C12.2549 13.2588 11 16.4736 11 20.4C11 22.9 12.0834 25.7916 14.25 29.075C16.4166 32.3583 19.6666 36.0167 24 40.05ZM23.9875 43C23.6292 43 23.275 42.9417 22.925 42.825C22.575 42.7084 22.2667 42.5167 22 42.25C20.6 40.9833 19.0834 39.525 17.45 37.875C15.8167 36.225 14.3 34.45 12.9 32.55C11.5 30.65 10.3334 28.6666 9.40002 26.6C8.46667 24.5333 8 22.4667 8 20.4C8 15.4 9.60828 11.4166 12.825 8.44995C16.0416 5.48328 19.7667 4 24 4C28.2333 4 31.9584 5.48328 35.175 8.44995C38.3917 11.4166 40 15.4 40 20.4C40 22.4667 39.5333 24.5333 38.6 26.6C37.6666 28.6666 36.5 30.65 35.1 32.55C33.7 34.45 32.1833 36.225 30.55 37.875C28.9166 39.525 27.4 40.9833 26 42.25C25.7333 42.5167 25.4208 42.7084 25.0625 42.825C24.7042 42.9417 24.3458 43 23.9875 43ZM24.0044 23.5C24.9681 23.5 25.7916 23.1569 26.475 22.4706C27.1583 21.7843 27.5 20.9592 27.5 19.9956C27.5 19.0319 27.1569 18.2084 26.4706 17.525C25.7843 16.8417 24.9592 16.5 23.9956 16.5C23.0319 16.5 22.2084 16.8431 21.525 17.5294C20.8417 18.2157 20.5 19.0408 20.5 20.0044C20.5 20.9681 20.8431 21.7916 21.5294 22.475C22.2157 23.1583 23.0408 23.5 24.0044 23.5Z" fill="#CCC5B9" fill-opacity="1.000000" fill-rule="nonzero"/>
	</g>
</svg>
