<svg width="48.000000" height="48.000000" viewBox="0 0 48 48" fill="none" xmlns="http://www.w3.org/2000/svg" xmlns:xlink="http://www.w3.org/1999/xlink">
	<defs>
		<clipPath id="clip6_70">
			<rect id="info_FILL0_wght400_GRAD0_opsz48 1" width="48.000000" height="48.000000" fill="white" fill-opacity="0"/>
		</clipPath>
	</defs>
	<rect id="info_FILL0_wght400_GRAD0_opsz48 1" width="48.000000" height="48.000000" fill="#FFFFFF" fill-opacity="0"/>
	<g clip-path="url(#clip6_70)">
		<path id="Vector" d="M24.1587 34C24.5863 34 24.9417 33.8562 25.225 33.5687C25.5083 33.2812 25.65 32.925 25.65 32.5L25.65 23.5C25.65 23.075 25.5054 22.7188 25.2163 22.4313C24.927 22.1438 24.5687 22 24.1412 22C23.7137 22 23.3583 22.1438 23.075 22.4313C22.7916 22.7188 22.65 23.075 22.65 23.5L22.65 32.5C22.65 32.925 22.7946 33.2812 23.0837 33.5687C23.3729 33.8562 23.7313 34 24.1587 34ZM23.9991 18.3C24.4663 18.3 24.8583 18.1466 25.175 17.84C25.4917 17.5333 25.65 17.1533 25.65 16.7C25.65 16.2184 25.4919 15.8146 25.1759 15.4888C24.8599 15.163 24.4681 15 24.0009 15C23.5337 15 23.1417 15.163 22.825 15.4888C22.5083 15.8146 22.35 16.2184 22.35 16.7C22.35 17.1533 22.5081 17.5333 22.8241 17.84C23.1403 18.1466 23.5319 18.3 23.9991 18.3ZM24.0133 44C21.2555 44 18.6638 43.475 16.2383 42.425C13.8127 41.375 11.6917 39.9417 9.875 38.125C8.05835 36.3083 6.625 34.186 5.57495 31.7579C4.52502 29.33 4 26.7356 4 23.975C4 21.2144 4.52502 18.62 5.57495 16.192C6.625 13.764 8.05835 11.65 9.875 9.84998C11.6917 8.05005 13.814 6.625 16.2421 5.57495C18.67 4.52502 21.2644 4 24.025 4C26.7856 4 29.38 4.52502 31.808 5.57495C34.236 6.625 36.35 8.05005 38.15 9.84998C39.95 11.65 41.375 13.7667 42.425 16.2C43.475 18.6333 44 21.2289 44 23.9867C44 26.7445 43.475 29.3362 42.425 31.7617C41.375 34.1873 39.95 36.3053 38.15 38.1158C36.35 39.9263 34.2333 41.3596 31.8 42.4158C29.3667 43.4719 26.7711 44 24.0133 44ZM24.025 41C28.7417 41 32.75 39.3417 36.05 36.025C39.35 32.7084 41 28.6917 41 23.975C41 19.2583 39.3531 15.25 36.0594 11.95C32.7656 8.65002 28.7458 7 24 7C19.3 7 15.2916 8.64685 11.975 11.9406C8.65833 15.2344 7 19.2542 7 24C7 28.7 8.65833 32.7084 11.975 36.025C15.2916 39.3417 19.3083 41 24.025 41Z" fill="#CCC5B9" fill-opacity="1.000000" fill-rule="nonzero"/>
	</g>
</svg>
