<svg width="33.000000" height="33.000000" viewBox="0 0 33 33" fill="none" xmlns="http://www.w3.org/2000/svg" xmlns:xlink="http://www.w3.org/1999/xlink">
	<defs>
		<clipPath id="clip3_8">
			<rect id="search_FILL0_wght400_GRAD0_opsz24 1" width="33.000000" height="33.000000" fill="white" fill-opacity="0"/>
		</clipPath>
	</defs>
	<rect id="search_FILL0_wght400_GRAD0_opsz24 1" width="33.000000" height="33.000000" fill="#FFFFFF" fill-opacity="0"/>
	<g clip-path="url(#clip3_8)">
		<path id="Vector" d="M13.0625 22C10.5646 22 8.45056 21.1349 6.72034 19.4047C4.99011 17.6744 4.125 15.5604 4.125 13.0625C4.125 10.5646 4.99011 8.45056 6.72034 6.72034C8.45056 4.99011 10.5646 4.125 13.0625 4.125C15.5604 4.125 17.6744 4.99011 19.4047 6.72034C21.1349 8.45056 22 10.5646 22 13.0625C22 14.0708 21.8396 15.0219 21.5188 15.9156C21.1979 16.8093 20.7625 17.6 20.2125 18.2875L27.9125 25.9875C28.1646 26.2396 28.2906 26.5604 28.2906 26.95C28.2906 27.3396 28.1646 27.6604 27.9125 27.9125C27.6604 28.1646 27.3396 28.2906 26.95 28.2906C26.5604 28.2906 26.2396 28.1646 25.9875 27.9125L18.2875 20.2125C17.6 20.7625 16.8093 21.1979 15.9156 21.5188C15.0219 21.8396 14.0708 22 13.0625 22ZM13.0625 19.25C14.7812 19.25 16.2422 18.6484 17.4453 17.4453C18.6484 16.2422 19.25 14.7812 19.25 13.0625C19.25 11.3438 18.6484 9.88281 17.4453 8.67969C16.2422 7.47656 14.7812 6.875 13.0625 6.875C11.3438 6.875 9.88281 7.47656 8.67969 8.67969C7.47656 9.88281 6.875 11.3438 6.875 13.0625C6.875 14.7812 7.47656 16.2422 8.67969 17.4453C9.88281 18.6484 11.3438 19.25 13.0625 19.25Z" fill="#CCC5B9" fill-opacity="1.000000" fill-rule="nonzero"/>
	</g>
</svg>
